<svg xmlns="http://www.w3.org/2000/svg" width="20" height="24" viewBox="0 0 20 24">
  <path id="apple-icon_2_" data-name="apple-icon (2)" d="M76.165,12.727a5.422,5.422,0,0,1,2.651-4.568,5.782,5.782,0,0,0-4.492-2.377c-1.913-.189-3.732,1.1-4.7,1.1s-2.467-1.073-4.053-1.044a6.034,6.034,0,0,0-5.082,3.009c-2.166,3.672-.554,9.113,1.557,12.09,1.031,1.458,2.261,3.1,3.876,3.037,1.555-.06,2.143-.984,4.024-.984s2.409.984,4.055.953c1.674-.03,2.734-1.486,3.759-2.949a13.092,13.092,0,0,0,1.7-3.412,5.32,5.32,0,0,1-3.3-4.854h0ZM73.073,3.808A5.209,5.209,0,0,0,74.351-.024a5.552,5.552,0,0,0-3.618,1.818,4.963,4.963,0,0,0-1.3,3.714,4.6,4.6,0,0,0,3.643-1.7v0Z" transform="translate(-59.457 0.024)" fill="#0d1317" fill-rule="evenodd"/>
</svg>
