<svg xmlns="http://www.w3.org/2000/svg" width="40" height="24" viewBox="0 0 40 24">
  <g id="american-express-icon" transform="translate(-1)">
    <path id="Path_1959" data-name="Path 1959" d="M101241.992,33836h15.7v15.84h-15.7Z" transform="translate(-101228.844 -33831.918)" fill="#006ece" fill-rule="evenodd"/>
    <path id="Path_1960" data-name="Path 1960" d="M101288.414,78842.422l-.3-.742-.3.742Zm14.273,2.531h-.8a.31.31,0,0,0-.18.031.162.162,0,0,0-.07.133.143.143,0,0,0,.109.141.332.332,0,0,0,.164.023l.242.008a.707.707,0,0,1,.5.148.207.207,0,0,1,.039.047v-.531Zm0,1.219a.666.666,0,0,1-.594.242h-.867v-.4h.859a.275.275,0,0,0,.18-.047.166.166,0,0,0,.055-.117.157.157,0,0,0-.055-.125.209.209,0,0,0-.156-.039c-.414-.016-.937.008-.937-.578,0-.273.172-.555.641-.555h.875v-.367h-.812a.911.911,0,0,0-.562.156v-.156h-1.2a.819.819,0,0,0-.523.156v-.156h-2.156v.156a1.153,1.153,0,0,0-.6-.156h-1.414v.156a1.026,1.026,0,0,0-.625-.156h-1.586l-.367.4-.336-.4h-2.383v2.586h2.336l.375-.4.352.4h1.438v-.6h.141a1.629,1.629,0,0,0,.617-.094v.7h1.18v-.672h.055c.07,0,.078.008.078.078v.594h3.609a1.015,1.015,0,0,0,.6-.164v.164h1.141a1.527,1.527,0,0,0,.648-.117v-.484Zm-1.758-.734a.512.512,0,0,1,.133.391c0,.4-.25.586-.7.586h-.859v-.4h.859a.275.275,0,0,0,.18-.047.159.159,0,0,0,.047-.117.137.137,0,0,0-.055-.125.209.209,0,0,0-.156-.039c-.414-.016-.922.008-.922-.578,0-.273.156-.555.625-.555h.883v.4h-.8a.338.338,0,0,0-.187.031.139.139,0,0,0-.062.133.157.157,0,0,0,.094.148.588.588,0,0,0,.18.016l.242.008a.72.72,0,0,1,.5.148Zm-3.977-.117a.436.436,0,0,1-.227.039h-.531v-.422h.539a.5.5,0,0,1,.219.031.189.189,0,0,1,.086.172A.194.194,0,0,1,101296.953,78845.32Zm.266.234a.453.453,0,0,1,.211.156.511.511,0,0,1,.078.336v.367h-.445v-.234a.566.566,0,0,0-.07-.359.436.436,0,0,0-.328-.086h-.469v.68h-.437v-1.859h1.008a1.113,1.113,0,0,1,.539.094.431.431,0,0,1,.227.406.519.519,0,0,1-.312.5Zm.555-1h1.469v.383h-1.039v.344h1.016v.375h-1.016v.367l1.039.008v.383h-1.469v-1.859Zm-2.977.859h-.57v-.477h.578c.148,0,.258.063.258.227S101294.961,78845.414,101294.8,78845.414Zm-1.016.828-.672-.75.672-.734Zm-1.75-.219h-1.078v-.367h.961v-.375h-.961v-.344h1.1l.492.547-.516.539Zm3.516-.859c0,.523-.391.625-.766.625h-.555v.625h-.859l-.539-.617-.562.617h-1.758v-1.859h1.781l.547.609.547-.609h1.422c.344,0,.742.1.742.609Zm-.492-3.031a.463.463,0,0,1-.211.039h-.539v-.422h.547a.429.429,0,0,1,.2.031.181.181,0,0,1,.094.164.222.222,0,0,1-.094.188Zm3.828.289-.3-.742-.312.742Zm-7.125.8h-.453v-1.453l-.648,1.453h-.383l-.633-1.453v1.453h-.906l-.164-.414h-.914l-.18.414h-.477l.789-1.852h.656l.75,1.75v-1.75h.727l.563,1.258.539-1.258h.734v1.852Zm1.8,0h-1.477v-1.852h1.477v.383h-1.023v.344h1v.375h-1v.367h1.023v.383Zm2.086-1.352a.5.5,0,0,1-.32.492.525.525,0,0,1,.227.156.539.539,0,0,1,.07.336v.367h-.453v-.234a.528.528,0,0,0-.07-.359.43.43,0,0,0-.312-.078h-.477v.672h-.437v-1.852h1.016a1.1,1.1,0,0,1,.531.086.438.438,0,0,1,.227.414Zm.7,1.352h-.445v-1.852h.445Zm5.211,0h-.617l-.836-1.391v1.391h-.9l-.164-.414h-.93l-.156.414h-.516a.961.961,0,0,1-.648-.2.919.919,0,0,1-.234-.7,1.016,1.016,0,0,1,.234-.734.97.97,0,0,1,.68-.211h.422v.391h-.414a.448.448,0,0,0-.336.109.625.625,0,0,0-.133.43.614.614,0,0,0,.125.43.4.4,0,0,0,.3.1h.2l.609-1.461h.672l.734,1.75v-1.75h.68l.781,1.289v-1.289h.438v1.852Zm-14.555.359h.75l.172-.406h.383l.164.406h1.484v-.312l.133.32h.773l.125-.32v.313h3.688v-.672h.07c.047,0,.063.008.063.094v.578h1.9v-.156a1.533,1.533,0,0,0,.719.156h.789l.172-.406h.391l.172.406h1.539v-.383l.234.383h1.242V78841h-1.227v.3l-.172-.3h-1.258v.3l-.156-.3h-1.7a1.576,1.576,0,0,0-.742.148V78841h-1.164v.148a.77.77,0,0,0-.508-.148h-4.273l-.289.664-.289-.664h-1.359v.3l-.148-.3h-1.148l-.523,1.227v1.352Z" transform="translate(-101273.844 -78831.492)" fill="#fff" fill-rule="evenodd"/>
    <path id="Path_1961" data-name="Path 1961" d="M4.764,0H37.236a3.743,3.743,0,0,1,2.659,1.111A3.781,3.781,0,0,1,41,3.783V20.217A3.783,3.783,0,0,1,37.236,24H4.764A3.783,3.783,0,0,1,1,20.217V3.783A3.781,3.781,0,0,1,2.105,1.111,3.744,3.744,0,0,1,4.764,0ZM37.236,1.3H4.764A2.482,2.482,0,0,0,2.3,3.783V20.217A2.482,2.482,0,0,0,4.764,22.7H37.236a2.453,2.453,0,0,0,1.741-.729,2.478,2.478,0,0,0,.725-1.75V3.783a2.478,2.478,0,0,0-.725-1.75A2.453,2.453,0,0,0,37.236,1.3Z" transform="translate(0)" fill="#e4e4e4"/>
  </g>
</svg>
