<svg xmlns="http://www.w3.org/2000/svg" width="40" height="24" viewBox="0 0 40 24">
  <g id="Layer_x0020_1" transform="translate(-2)">
    <g id="_364834240" transform="translate(2)">
      <path id="Path_1948" data-name="Path 1948" d="M5.764,0H38.236a3.743,3.743,0,0,1,2.659,1.111A3.781,3.781,0,0,1,42,3.783V20.217A3.783,3.783,0,0,1,38.236,24H5.764A3.783,3.783,0,0,1,2,20.217V3.783A3.781,3.781,0,0,1,3.105,1.111,3.744,3.744,0,0,1,5.764,0ZM38.236,1.3H5.764A2.482,2.482,0,0,0,3.3,3.783V20.217A2.482,2.482,0,0,0,5.764,22.7H38.236a2.453,2.453,0,0,0,1.741-.729,2.478,2.478,0,0,0,.725-1.75V3.783a2.478,2.478,0,0,0-.725-1.75A2.453,2.453,0,0,0,38.236,1.3Z" transform="translate(-2 0)" fill="#e4e4e4"/>
      <path id="Path_1949" data-name="Path 1949" d="M82189.539,68337.406l1.242-7.289h1.977l-1.242,7.289Zm9.141-7.1a5.107,5.107,0,0,0-1.773-.3c-1.953,0-3.312.977-3.328,2.383-.016,1.047.969,1.641,1.734,1.992s1.023.57,1.008.906c0,.492-.609.7-1.164.7a4.017,4.017,0,0,1-1.867-.375l-.258-.109-.273,1.633a6.367,6.367,0,0,0,2.2.375c2.078,0,3.43-.969,3.438-2.484.016-.82-.516-1.445-1.656-1.977-.687-.352-1.109-.562-1.1-.906,0-.3.359-.625,1.117-.625a3.394,3.394,0,0,1,1.484.273l.188.086.258-1.578Zm5.07-.172h-1.531a.967.967,0,0,0-1.023.6l-2.945,6.672h2.078s.352-.883.406-1.086h2.547c.055.258.227,1.086.227,1.086h1.836l-1.594-7.273Zm-2.437,4.7c.164-.422.789-2.039.789-2.039-.008.023.156-.422.258-.7l.141.617s.375,1.75.453,2.117Zm-13.43-4.7-1.937,4.961-.2-1.008a5.632,5.632,0,0,0-2.75-3.055l1.773,6.375,2.1-.008,3.109-7.266Z" transform="translate(-82173.141 -68321.773)" fill="#191e70" fill-rule="evenodd"/>
      <path id="Path_1950" data-name="Path 1950" d="M64995.215,69386.008h-3.187l-.023.156a6.518,6.518,0,0,1,4.8,3.8l-.7-3.352A.845.845,0,0,0,64995.215,69386.008Z" transform="translate(-64984.203 -69377.648)" fill="#f7b600" fill-rule="evenodd"/>
    </g>
  </g>
</svg>
