<svg xmlns="http://www.w3.org/2000/svg" width="40" height="24" viewBox="0 0 40 24">
  <g id="master-card-icon" transform="translate(-1)">
    <path id="Path_1951" data-name="Path 1951" d="M97043.18,140008.734a.416.416,0,0,0-.18-.125.571.571,0,0,0-.234-.047c-.047,0-.094.016-.141.016a.252.252,0,0,0-.141.047.457.457,0,0,0-.133.078.571.571,0,0,0-.109.125.524.524,0,0,0-.2-.187.591.591,0,0,0-.289-.078.3.3,0,0,0-.117.016.327.327,0,0,0-.117.031c-.039.016-.078.047-.109.063a1.3,1.3,0,0,0-.1.109v-.172h-.3v1.469h.313v-.812a.4.4,0,0,1,.031-.172.34.34,0,0,1,.078-.125.282.282,0,0,1,.117-.062.232.232,0,0,1,.141-.031.33.33,0,0,1,.25.094.5.5,0,0,1,.086.3v.813h.313v-.812a.4.4,0,0,1,.031-.172.34.34,0,0,1,.078-.125.282.282,0,0,1,.117-.062.232.232,0,0,1,.141-.031.33.33,0,0,1,.25.094.5.5,0,0,1,.086.3v.813h.313v-.922a.667.667,0,0,0-.039-.234.466.466,0,0,0-.125-.187Zm14.734,1.25v.031h.031l.008-.016h.008s0-.016-.008-.016h-.039Zm.031-.031c.016,0,.031,0,.039.016.008,0,.016.016.016.031,0,0,0,.016-.008.016a.031.031,0,0,1-.031.016l.039.047h-.047l-.031-.047h-.008v.047h-.039v-.125Zm-.008.172h.039c.016-.016.023-.016.031-.031s.023-.016.023-.031a.145.145,0,0,0,0-.094.135.135,0,0,0-.023-.031c-.008,0-.016-.016-.031-.016a.043.043,0,0,0-.039-.016.057.057,0,0,0-.047.016c-.016,0-.023.016-.031.016a.135.135,0,0,0-.023.031.145.145,0,0,0,0,.094c0,.016.008.016.023.031s.016.016.031.031Zm0-.25h.055c.023.016.039.016.055.031s.023.031.031.047a.22.22,0,0,1,.008.063.172.172,0,0,1-.008.063c-.008.016-.023.031-.031.047a.079.079,0,0,1-.055.031.074.074,0,0,1-.055.016.084.084,0,0,1-.062-.016.079.079,0,0,1-.055-.031c-.008-.016-.023-.031-.031-.047a.172.172,0,0,1-.008-.062.22.22,0,0,1,.008-.062c.008-.016.023-.031.031-.047s.031-.016.055-.031Zm-6.227-.875a.481.481,0,0,1,.148-.094.351.351,0,0,1,.18-.031.429.429,0,0,1,.2.031.292.292,0,0,1,.156.094l.156-.266a.789.789,0,0,0-.2-.109.832.832,0,0,0-.633,0,.714.714,0,0,0-.25.172.76.76,0,0,0-.172.234.92.92,0,0,0,0,.625,1.1,1.1,0,0,0,.172.25.68.68,0,0,0,.25.156.7.7,0,0,0,.313.063.712.712,0,0,0,.32-.062.789.789,0,0,0,.2-.109l-.156-.266a.292.292,0,0,1-.156.094.429.429,0,0,1-.2.031.351.351,0,0,1-.18-.031.3.3,0,0,1-.148-.094.52.52,0,0,1-.094-.156.418.418,0,0,1-.039-.187.472.472,0,0,1,.039-.187.52.52,0,0,1,.094-.156Zm5.211.531a.52.52,0,0,1-.094.156.443.443,0,0,1-.141.094.351.351,0,0,1-.18.031.366.366,0,0,1-.187-.031.487.487,0,0,1-.141-.109.255.255,0,0,1-.086-.141.578.578,0,0,1,0-.375.327.327,0,0,1,.086-.141.487.487,0,0,1,.141-.109.555.555,0,0,1,.367,0,1.1,1.1,0,0,1,.141.094.549.549,0,0,1,.094.531Zm.008-1.547v.8a.625.625,0,0,0-.187-.156.74.74,0,0,0-.273-.062.6.6,0,0,0-.289.063.618.618,0,0,0-.234.156.865.865,0,0,0-.164.25.92.92,0,0,0,0,.625.865.865,0,0,0,.164.25.618.618,0,0,0,.234.156.6.6,0,0,0,.289.063.524.524,0,0,0,.273-.062.459.459,0,0,0,.188-.156v.172h.328v-2.094Zm-1.508.578a.609.609,0,0,0-.242.047.816.816,0,0,0-.18.188v-.187h-.3v1.469h.3v-.812a.47.47,0,0,1,.023-.156.313.313,0,0,1,.078-.125.162.162,0,0,1,.109-.078.21.21,0,0,1,.141-.031.365.365,0,0,1,.125.016.084.084,0,0,1,.063.016l.1-.312c-.031,0-.055-.016-.078-.016a.41.41,0,0,0-.141-.016Zm-4.484,0a.609.609,0,0,0-.242.047,1.065,1.065,0,0,0-.187.188v-.187h-.289v1.469h.3v-.812a.47.47,0,0,1,.023-.156.24.24,0,0,1,.07-.125.2.2,0,0,1,.117-.078.21.21,0,0,1,.141-.031.365.365,0,0,1,.125.016.084.084,0,0,1,.063.016l.1-.312c-.031,0-.055-.016-.086-.016a.345.345,0,0,0-.133-.016Zm-2.914,1.234a.481.481,0,0,1-.148.016.2.2,0,0,1-.094-.016.075.075,0,0,1-.07-.047.2.2,0,0,1-.055-.078.3.3,0,0,1-.016-.125v-.641h.516v-.3h-.516v-.469h-.328v.469h-.3v.3h.3v.641a.589.589,0,0,0,.141.438.532.532,0,0,0,.391.141.621.621,0,0,0,.25-.047,1.239,1.239,0,0,0,.141-.062l-.109-.266c-.031.016-.062.031-.1.047Zm5.914-.266a.4.4,0,0,1-.094.156.513.513,0,0,1-.133.094.578.578,0,0,1-.375,0,.487.487,0,0,1-.141-.109.309.309,0,0,1-.086-.141.578.578,0,0,1,0-.375.425.425,0,0,1,.086-.141.487.487,0,0,1,.141-.109.578.578,0,0,1,.375,0c.047.031.094.063.133.094a.4.4,0,0,1,.094.156.578.578,0,0,1,0,.375Zm.016-.75a.781.781,0,0,0-.2-.156.7.7,0,0,0-.273-.062.623.623,0,0,0-.289.063.769.769,0,0,0-.234.156.839.839,0,0,0-.156.25.92.92,0,0,0,0,.625.839.839,0,0,0,.156.25.769.769,0,0,0,.234.156.623.623,0,0,0,.289.063.507.507,0,0,0,.273-.062.541.541,0,0,0,.2-.156v.172h.32v-1.469h-.32Zm-5.187.438a.372.372,0,0,1,.039-.141.488.488,0,0,1,.078-.125.309.309,0,0,1,.117-.078.482.482,0,0,1,.156-.016.342.342,0,0,1,.25.094.528.528,0,0,1,.125.266Zm.9-.437a.624.624,0,0,0-.219-.156.572.572,0,0,0-.281-.062.666.666,0,0,0-.3.063.654.654,0,0,0-.227.156.68.68,0,0,0-.156.25,1.008,1.008,0,0,0-.055.313,1.11,1.11,0,0,0,.055.328.724.724,0,0,0,.156.234.541.541,0,0,0,.242.156.666.666,0,0,0,.3.063,1.1,1.1,0,0,0,.32-.047,1.159,1.159,0,0,0,.289-.156l-.164-.234a.842.842,0,0,1-.2.109.551.551,0,0,1-.219.047.505.505,0,0,1-.156-.031.415.415,0,0,1-.133-.062.318.318,0,0,1-.094-.109.56.56,0,0,1-.062-.172h1.094c0-.031.008-.047.008-.062v-.062a.822.822,0,0,0-.055-.312.652.652,0,0,0-.141-.25Zm-3.023.563a.633.633,0,0,0-.375-.141l-.156-.031a.2.2,0,0,1-.094-.016c-.031,0-.055-.016-.078-.016a.133.133,0,0,1-.047-.047.1.1,0,0,1-.023-.062.166.166,0,0,1,.078-.141.372.372,0,0,1,.2-.047c.047,0,.094.016.133.016.047.016.094.016.133.031s.07.031.109.047a.2.2,0,0,0,.078.031l.141-.25a1.179,1.179,0,0,0-.266-.109,1.127,1.127,0,0,0-.586-.016.669.669,0,0,0-.2.109.262.262,0,0,0-.117.141.433.433,0,0,0-.047.2.348.348,0,0,0,.133.281.588.588,0,0,0,.367.141l.156.031a.437.437,0,0,1,.2.063.11.11,0,0,1,.063.094.156.156,0,0,1-.086.141.526.526,0,0,1-.25.047.532.532,0,0,1-.164-.016c-.047-.016-.094-.016-.133-.031s-.07-.031-.1-.047a.818.818,0,0,1-.086-.062l-.156.25c.055.031.109.063.172.094.055.016.117.047.172.063.055,0,.109.016.164.016a.41.41,0,0,0,.133.016.817.817,0,0,0,.281-.047.437.437,0,0,0,.211-.094.506.506,0,0,0,.133-.156.371.371,0,0,0,.047-.187.343.343,0,0,0-.141-.3Zm-1.812.188a.52.52,0,0,1-.094.156.443.443,0,0,1-.141.094.351.351,0,0,1-.18.031.366.366,0,0,1-.187-.031.487.487,0,0,1-.141-.109.318.318,0,0,1-.094-.141.762.762,0,0,1,0-.375.443.443,0,0,1,.094-.141.487.487,0,0,1,.141-.109.555.555,0,0,1,.367,0,1.1,1.1,0,0,1,.141.094.52.52,0,0,1,.094.156.578.578,0,0,1,0,.375Zm.008-.75a.563.563,0,0,0-.461-.219.827.827,0,0,0-.289.063.718.718,0,0,0-.242.156,1.034,1.034,0,0,0-.156.25.92.92,0,0,0,0,.625,1.034,1.034,0,0,0,.156.25.718.718,0,0,0,.242.156.583.583,0,0,0,.289.063.524.524,0,0,0,.273-.062.516.516,0,0,0,.188-.156v.172h.32v-1.469h-.32Z" transform="translate(-97028.352 -139991.109)" fill="#141515" fill-rule="evenodd"/>
    <path id="Path_1952" data-name="Path 1952" d="M89445.914,40960.6a5.6,5.6,0,0,1,2.117-4.391,5.6,5.6,0,1,0,0,8.785,5.594,5.594,0,0,1-2.117-4.395Z" transform="translate(-89427.266 -40950.059)" fill="#de2c1d" fill-rule="evenodd"/>
    <path id="Path_1953" data-name="Path 1953" d="M147063,50989.391a2.707,2.707,0,1,0,2.125-4.395A5.576,5.576,0,0,0,147063,50989.391Z" transform="translate(-147044.359 -50978.848)" fill="#ed6100" fill-rule="evenodd"/>
    <path id="Path_1954" data-name="Path 1954" d="M164705.453,40955a5.563,5.563,0,0,0-3.453,1.211,5.628,5.628,0,0,1,0,8.785,5.59,5.59,0,1,0,3.453-10Zm5.969,8.84v-.242l-.078.207h-.078l-.078-.207v.242h-.078v-.348h.109l.078.219.094-.219h.109v.348Zm-.578,0v-.273h-.109v-.074h.3v.074h-.109v.273Z" transform="translate(-164681.234 -40950.059)" fill="#f79f06" fill-rule="evenodd"/>
    <path id="Path_1955" data-name="Path 1955" d="M4.764,0H37.236a3.744,3.744,0,0,1,2.659,1.111A3.781,3.781,0,0,1,41,3.783V20.217A3.783,3.783,0,0,1,37.236,24H4.764A3.783,3.783,0,0,1,1,20.217V3.783A3.781,3.781,0,0,1,2.105,1.111,3.744,3.744,0,0,1,4.764,0ZM37.236,1.3H4.764A2.482,2.482,0,0,0,2.3,3.783V20.217A2.482,2.482,0,0,0,4.764,22.7H37.236a2.453,2.453,0,0,0,1.741-.729,2.478,2.478,0,0,0,.725-1.75V3.783a2.478,2.478,0,0,0-.725-1.75A2.453,2.453,0,0,0,37.236,1.3Z" fill="#e4e4e4"/>
  </g>
</svg>
