<svg xmlns="http://www.w3.org/2000/svg" width="40" height="24" viewBox="0 0 40 24">
  <g id="paypal-color-icon" transform="translate(-1)">
    <path id="Path_1956" data-name="Path 1956" d="M122093.328,46907.953a3.866,3.866,0,0,0-2.992-.957h-3.914a.567.567,0,0,0-.562.477l-1.633,10.41a.339.339,0,0,0,.336.391h2.422l.609-3.875-.023.121a.561.561,0,0,1,.563-.477h1.148c2.258,0,4.023-.922,4.539-3.59.016-.082.031-.16.039-.234a2.5,2.5,0,0,0-.531-2.266Z" transform="translate(-122068.57 -46901.34)" fill="#003087" fill-rule="evenodd"/>
    <path id="Path_1957" data-name="Path 1957" d="M143689.547,78609.992c-.578,2.633-2.406,4.023-5.281,4.023h-.953l-.641,4.234h-.812l-.031.273a.287.287,0,0,0,.281.336h2.031a.487.487,0,0,0,.484-.414l.016-.1.406-2.453.031-.133a.476.476,0,0,1,.484-.414h.3a3.593,3.593,0,0,0,3.969-3.141,2.931,2.931,0,0,0-.281-2.211Z" transform="translate(-143663.594 -78600.516)" fill="#009cde" fill-rule="evenodd"/>
    <path id="Path_1958" data-name="Path 1958" d="M4.764,0H37.236a3.743,3.743,0,0,1,2.659,1.111A3.781,3.781,0,0,1,41,3.783V20.217A3.783,3.783,0,0,1,37.236,24H4.764A3.783,3.783,0,0,1,1,20.217V3.783A3.781,3.781,0,0,1,2.105,1.111,3.744,3.744,0,0,1,4.764,0ZM37.236,1.3H4.764A2.482,2.482,0,0,0,2.3,3.783V20.217A2.482,2.482,0,0,0,4.764,22.7H37.236a2.453,2.453,0,0,0,1.741-.729,2.478,2.478,0,0,0,.725-1.75V3.783a2.478,2.478,0,0,0-.725-1.75A2.453,2.453,0,0,0,37.236,1.3Z" transform="translate(0)" fill="#e4e4e4"/>
  </g>
</svg>
