<?xml version="1.0" encoding="UTF-8"?>
<svg xmlns="http://www.w3.org/2000/svg" viewBox="0 0 1348.02 695.21">
  <defs>
    <style>
      .cls-1 {
        fill: #e8cc42;
      }

      .cls-2 {
        fill: #f7df69;
      }

      .cls-3 {
        fill: #fff;
      }

      .cls-4 {
        fill: #fc5135;
      }

      .cls-5 {
        fill: #574984;
      }

      .cls-6 {
        fill: #ffeb78;
      }

      .cls-7 {
        isolation: isolate;
      }

      .cls-8 {
        fill: #3d376b;
      }

      .cls-9, .cls-10 {
        fill: #ff7690;
      }

      .cls-9, .cls-11 {
        mix-blend-mode: color-dodge;
        opacity: .5;
      }

      .cls-12 {
        fill: #f9ae7a;
      }

      .cls-13 {
        fill: #f34c66;
      }

      .cls-14 {
        fill: #511935;
      }

      .cls-15 {
        fill: #77294c;
      }

      .cls-16 {
        fill: #60281f;
      }

      .cls-17 {
        fill: #112833;
      }

      .cls-18 {
        fill: #1a3c49;
      }

      .cls-19 {
        fill: #ef7950;
      }

      .cls-11 {
        fill: #7a2633;
      }

      .cls-20 {
        fill: #8e3e28;
      }

      .cls-21 {
        fill: #e02b2b;
      }

      .cls-22 {
        fill: #f4a773;
      }

      .cls-23 {
        fill: #999;
        mix-blend-mode: multiply;
        opacity: .7;
      }

      .cls-24 {
        fill: #ea6453;
      }

      .cls-25 {
        fill: #1f124c;
      }

      .cls-26 {
        fill: #602618;
      }

      .cls-27 {
        fill: #601f43;
      }

      .cls-28 {
        fill: #291c51;
      }

      .cls-29 {
        fill: #ffd731;
      }
    </style>
  </defs>
  <g class="cls-7">
    <g id="_Layer_" data-name="&amp;lt;Layer&amp;gt;">
      <g>
        <g>
          <path class="cls-23" d="m468.68,633.27c-173.19,0-334.28,1.05-468.68,2.85v28.82c134.4,1.8,295.49,2.85,468.68,2.85,469.88,0,850.8-7.73,850.8-17.26s-380.92-17.26-850.8-17.26Z"/>
          <g>
            <g>
              <g>
                <polygon class="cls-8" points="1280.73 485.37 1252.25 634.61 1223.97 634.61 1193.76 485.37 1205.84 485.37 1218.31 546.96 1246.59 546.96 1258.34 485.37 1280.73 485.37"/>
                <polygon class="cls-25" points="1269.4 485.37 1240.92 634.61 1223.97 634.61 1193.76 485.37 1205.84 485.37 1218.31 546.96 1246.59 546.96 1258.34 485.37 1269.4 485.37"/>
              </g>
              <g>
                <path class="cls-8" d="m1303.14,637.27c0,7.58-4.16,13.72-9.29,13.72h-113.21c-5.13,0-9.29-6.14-9.29-13.72,0-2.11.32-4.1.9-5.89.46-1.42,1.07-2.7,1.82-3.81,1.68-2.48,4-4.02,6.57-4.02h113.21c3.7,0,6.89,3.19,8.39,7.83.57,1.78.9,3.78.9,5.89Z"/>
                <path class="cls-25" d="m1275.8,637.27c0,7.58-4.16,13.72-9.29,13.72h-85.88c-5.13,0-9.29-6.14-9.29-13.72,0-2.11.32-4.1.9-5.89.46-1.42,1.07-2.7,1.82-3.81,1.68-2.48,4-4.02,6.57-4.02h85.88c3.7,0,6.89,3.19,8.39,7.83.57,1.78.9,3.78.9,5.89Z"/>
                <path class="cls-9" d="m1302.24,631.38h-129.99c.46-1.42,1.07-2.7,1.82-3.81,1.68-2.48,4-4.02,6.57-4.02h113.21c3.7,0,6.89,3.19,8.39,7.83Z"/>
              </g>
            </g>
            <g>
              <g>
                <polygon class="cls-8" points="851.49 485.37 823.01 634.61 794.73 634.61 764.52 485.37 776.6 485.37 789.07 546.96 817.35 546.96 829.1 485.37 851.49 485.37"/>
                <polygon class="cls-25" points="840.16 485.37 811.68 634.61 794.73 634.61 764.52 485.37 776.6 485.37 789.07 546.96 817.35 546.96 829.1 485.37 840.16 485.37"/>
              </g>
              <g>
                <path class="cls-8" d="m873.9,637.27c0,7.58-4.16,13.72-9.29,13.72h-113.21c-5.13,0-9.29-6.14-9.29-13.72,0-2.11.32-4.1.9-5.89.46-1.42,1.07-2.7,1.82-3.81,1.68-2.48,4-4.02,6.57-4.02h113.21c3.7,0,6.89,3.19,8.39,7.83.57,1.78.9,3.78.9,5.89Z"/>
                <path class="cls-25" d="m846.57,637.27c0,7.58-4.16,13.72-9.29,13.72h-85.88c-5.13,0-9.29-6.14-9.29-13.72,0-2.11.32-4.1.9-5.89.46-1.42,1.07-2.7,1.82-3.81,1.68-2.48,4-4.02,6.57-4.02h85.88c3.7,0,6.89,3.19,8.39,7.83.57,1.78.9,3.78.9,5.89Z"/>
                <path class="cls-9" d="m873,631.38h-129.99c.46-1.42,1.07-2.7,1.82-3.81,1.68-2.48,4-4.02,6.57-4.02h113.21c3.7,0,6.89,3.19,8.39,7.83Z"/>
              </g>
            </g>
            <g>
              <g>
                <polygon class="cls-8" points="320.59 485.37 292.11 634.61 263.83 634.61 233.62 485.37 245.7 485.37 258.17 546.96 286.45 546.96 298.2 485.37 320.59 485.37"/>
                <polygon class="cls-25" points="309.26 485.37 280.78 634.61 263.83 634.61 233.62 485.37 245.7 485.37 258.17 546.96 286.45 546.96 298.2 485.37 309.26 485.37"/>
              </g>
              <g>
                <path class="cls-8" d="m342.99,637.27c0,7.58-4.16,13.72-9.29,13.72h-113.21c-5.13,0-9.29-6.14-9.29-13.72,0-2.11.32-4.1.9-5.89.46-1.42,1.07-2.7,1.82-3.81,1.68-2.48,4-4.02,6.57-4.02h113.21c3.7,0,6.89,3.19,8.39,7.83.57,1.78.9,3.78.9,5.89Z"/>
                <path class="cls-25" d="m315.66,637.27c0,7.58-4.16,13.72-9.29,13.72h-85.88c-5.13,0-9.29-6.14-9.29-13.72,0-2.11.32-4.1.9-5.89.46-1.42,1.07-2.7,1.82-3.81,1.68-2.48,4-4.02,6.57-4.02h85.88c3.7,0,6.89,3.19,8.39,7.83.57,1.78.9,3.78.9,5.89Z"/>
                <path class="cls-9" d="m342.1,631.38h-129.99c.46-1.42,1.07-2.7,1.82-3.81,1.68-2.48,4-4.02,6.57-4.02h113.21c3.7,0,6.89,3.19,8.39,7.83Z"/>
              </g>
            </g>
          </g>
        </g>
        <g>
          <g>
            <g>
              <path class="cls-10" d="m1302.03,399.46c0,7.2-5.73,13.05-12.8,13.05h-129.31c-7.07,0-12.8-5.85-12.8-13.05,0-.29,0-.58.03-.86.01-.17.03-.34.05-.51.07-.68.18-1.33.35-1.97.58-2.26,1.75-4.29,3.32-5.89,2.32-2.36,5.51-3.82,9.05-3.82h129.31c5.94,0,10.93,4.12,12.38,9.71.28,1.06.42,2.18.42,3.34Z"/>
              <path class="cls-25" d="m1273.13,399.46c0,7.21-6.33,13.05-14.14,13.05h-97.73c-7.81,0-14.14-5.84-14.14-13.05,0-1.15.17-2.27.47-3.34.65-2.26,1.93-4.28,3.67-5.89,2.56-2.36,6.09-3.82,10-3.82h97.73c6.56,0,12.07,4.12,13.67,9.71.3,1.06.46,2.19.46,3.34Z"/>
            </g>
            <path class="cls-9" d="m1301.62,396.12h-154.02c.65-2.26,1.93-4.29,3.67-5.89,2.56-2.36,6.09-3.82,10-3.82h127.97c5.94,0,10.93,4.12,12.38,9.71Z"/>
          </g>
          <path class="cls-25" d="m944.38,450.56h251.57c-9.98-70.69-34.42-138.69-61.11-199.98-5.76-13.24-13.11-28.99-39.72-36.23-66.4-18.05-184.35-11.72-195.65,9.12-13.79,25.42,47.05,163.04,44.91,227.09Z"/>
          <path class="cls-25" d="m998.76,449.26h251.57c-9.98-70.69-34.42-138.69-61.11-199.97-5.77-13.24-13.11-28.99-39.73-36.23-66.4-18.05-184.35-11.72-195.65,9.12-13.79,25.42,47.05,163.04,44.91,227.08Z"/>
          <path class="cls-13" d="m969.85,474.7l267.62-3.31c-6.91-80.29-34.13-157.82-64.19-226.84-5.76-13.24-13.11-28.99-39.72-36.23-66.4-18.05-184.35-11.72-195.65,9.12-16.94,31.23,78.76,231.81,31.94,257.26Z"/>
          <g>
            <path class="cls-13" d="m1348.02,457.39v29.5c0,2.7-.46,5.25-1.3,7.57h-375.58c-.83-2.31-1.3-4.87-1.3-7.57v-29.5c0-10.45,6.94-18.91,15.5-18.91h259.46c79.05,0,103.23,8.47,103.23,18.91Z"/>
            <path class="cls-10" d="m1348.02,457.39v2.66h-378.18v-2.66c0-10.45,6.94-18.91,15.5-18.91h259.46c79.05,0,103.23,8.47,103.23,18.91Z"/>
          </g>
          <path class="cls-25" d="m1022.47,457.39v29.5c0,2.7-.1,5.25-.28,7.57h-80.34c-.18-2.32-.28-4.87-.28-7.57v-29.5c0-1.79.04-3.52.12-5.15.17-3.47.51-6.53.97-8.88.59-3.03,1.36-4.88,2.22-4.88h55.5c16.92,0,22.09,8.46,22.09,18.91Z"/>
        </g>
        <g>
          <g>
            <g>
              <path class="cls-10" d="m1080.98,397.79c0,7.33-5.73,13.28-12.8,13.28h-129.31c-7.07,0-12.8-5.95-12.8-13.28,0-.29,0-.59.03-.88.01-.17.03-.35.05-.52.07-.69.18-1.36.35-2,.58-2.3,1.75-4.36,3.32-5.99,2.32-2.4,5.51-3.89,9.05-3.89h129.31c5.94,0,10.93,4.19,12.38,9.88.27,1.08.42,2.22.42,3.4Z"/>
              <path class="cls-25" d="m1052.08,397.78c0,7.33-6.33,13.28-14.14,13.28h-97.73c-7.81,0-14.14-5.94-14.14-13.28,0-1.17.17-2.32.47-3.4.64-2.3,1.93-4.36,3.67-5.99,2.56-2.4,6.09-3.89,10-3.89h97.73c6.56,0,12.07,4.19,13.67,9.88.3,1.08.46,2.23.46,3.4Z"/>
            </g>
            <path class="cls-9" d="m1080.56,394.39h-154.02c.64-2.3,1.93-4.36,3.67-5.99,2.56-2.4,6.09-3.89,10-3.89h127.97c5.94,0,10.93,4.19,12.38,9.88Z"/>
          </g>
          <path class="cls-25" d="m723.32,449.78h251.58c-9.98-71.93-34.42-141.13-61.11-203.5-5.76-13.47-13.11-29.51-39.72-36.87-66.4-18.37-184.35-11.93-195.65,9.28-13.79,25.86,47.05,165.91,44.91,231.09Z"/>
          <path class="cls-25" d="m777.7,448.46h251.57c-9.98-71.94-34.43-141.13-61.11-203.5-5.76-13.47-13.11-29.51-39.72-36.87-66.4-18.37-184.35-11.93-195.65,9.28-13.79,25.86,47.05,165.91,44.91,231.09Z"/>
          <path class="cls-13" d="m748.79,477.14l267.62-3.36c-6.9-81.71-34.13-160.6-64.18-230.83-5.76-13.47-13.11-29.51-39.72-36.87-66.4-18.37-184.35-11.93-195.65,9.28-16.94,31.77,78.76,235.89,31.94,261.79Z"/>
          <g>
            <path class="cls-13" d="m1126.97,456.73v30.02c0,2.74-.46,5.35-1.3,7.7h-375.58c-.83-2.36-1.3-4.96-1.3-7.7v-30.02c0-10.63,6.94-19.24,15.49-19.24h259.46c79.05,0,103.23,8.61,103.23,19.24Z"/>
            <path class="cls-10" d="m1126.97,456.73v2.7h-378.18v-2.7c0-10.63,6.94-19.24,15.49-19.24h259.46c79.05,0,103.23,8.61,103.23,19.24Z"/>
          </g>
          <path class="cls-25" d="m801.41,456.73v30.02c0,2.74-.1,5.35-.28,7.7h-80.34c-.18-2.36-.28-4.96-.28-7.7v-30.02c0-1.82.04-3.58.12-5.24.17-3.53.51-6.65.97-9.04.59-3.08,1.36-4.96,2.22-4.96h55.5c16.92,0,22.09,8.61,22.09,19.24Z"/>
        </g>
        <g>
          <g>
            <g>
              <path class="cls-10" d="m843.34,394c0,7.61-5.73,13.8-12.8,13.8h-129.31c-7.07,0-12.8-6.18-12.8-13.8,0-.31,0-.61.03-.91.01-.18.03-.36.05-.54.07-.71.18-1.41.35-2.08.58-2.39,1.75-4.54,3.32-6.23,2.32-2.5,5.51-4.04,9.05-4.04h129.31c5.94,0,10.93,4.36,12.38,10.27.28,1.12.42,2.31.42,3.53Z"/>
              <path class="cls-25" d="m814.44,394c0,7.62-6.33,13.8-14.14,13.8h-97.73c-7.81,0-14.14-6.18-14.14-13.8,0-1.22.17-2.41.47-3.53.65-2.39,1.93-4.53,3.67-6.23,2.56-2.5,6.09-4.04,10-4.04h97.73c6.56,0,12.07,4.36,13.67,10.27.3,1.12.46,2.31.46,3.53Z"/>
            </g>
            <path class="cls-9" d="m842.92,390.47h-154.02c.65-2.39,1.93-4.54,3.67-6.23,2.56-2.5,6.09-4.04,10-4.04h127.97c5.94,0,10.93,4.36,12.38,10.27Z"/>
          </g>
          <path class="cls-25" d="m485.69,448.03h251.57c-9.98-74.75-34.42-146.66-61.11-211.46-5.76-14-13.11-30.66-39.72-38.31-66.4-19.09-184.35-12.4-195.65,9.64-13.79,26.88,47.05,172.4,44.91,240.13Z"/>
          <path class="cls-25" d="m540.07,446.66h251.57c-9.98-74.75-34.42-146.65-61.11-211.46-5.76-14-13.11-30.66-39.72-38.31-66.4-19.09-184.35-12.4-195.65,9.64-13.79,26.88,47.05,172.4,44.91,240.13Z"/>
          <path class="cls-13" d="m511.16,473.57l267.62-3.5c-6.91-84.91-34.13-166.89-64.19-239.87-5.76-14-13.11-30.66-39.72-38.31-66.4-19.09-184.35-12.4-195.65,9.64-16.94,33.02,78.76,245.13,31.94,272.03Z"/>
          <g>
            <path class="cls-13" d="m889.33,455.25v31.2c0,2.85-.46,5.56-1.3,8h-375.58c-.83-2.45-1.3-5.15-1.3-8v-31.2c0-11.05,6.94-20,15.49-20h259.46c79.05,0,103.23,8.95,103.23,20Z"/>
            <path class="cls-10" d="m889.33,455.25v4.18h-378.86l.68-4.18c0-11.05,6.94-20,15.49-20h259.46c79.05,0,103.23,8.95,103.23,20Z"/>
          </g>
          <path class="cls-25" d="m563.78,455.26v31.2c0,2.85-.1,5.56-.27,8h-80.34c-.18-2.45-.28-5.15-.28-8v-31.2c0-1.89.04-3.72.12-5.45.17-3.67.52-6.91.97-9.39.59-3.21,1.36-5.16,2.22-5.16h55.5c16.92,0,22.09,8.95,22.09,20Z"/>
        </g>
        <g>
          <g>
            <g>
              <path class="cls-10" d="m584.07,391.52c0,7.8-5.73,14.14-12.8,14.14h-129.31c-7.07,0-12.8-6.34-12.8-14.14,0-.31,0-.63.03-.93.01-.18.03-.37.05-.55.07-.73.18-1.44.35-2.13.58-2.45,1.75-4.65,3.32-6.38,2.32-2.56,5.51-4.14,9.05-4.14h129.31c5.94,0,10.93,4.47,12.38,10.52.28,1.15.42,2.36.42,3.62Z"/>
              <path class="cls-25" d="m555.17,391.52c0,7.81-6.33,14.14-14.14,14.14h-97.73c-7.81,0-14.14-6.33-14.14-14.14,0-1.25.17-2.47.47-3.62.65-2.45,1.93-4.64,3.67-6.38,2.56-2.56,6.09-4.14,10-4.14h97.73c6.56,0,12.07,4.47,13.67,10.52.31,1.15.47,2.37.47,3.62Z"/>
            </g>
            <path class="cls-9" d="m583.65,387.9h-154.02c.65-2.45,1.93-4.65,3.67-6.38,2.56-2.56,6.09-4.14,10-4.14h127.97c5.94,0,10.93,4.47,12.38,10.52Z"/>
          </g>
          <path class="cls-25" d="m226.41,446.89h251.58c-9.98-76.59-34.43-150.28-61.11-216.69-5.76-14.34-13.11-31.42-39.72-39.26-66.4-19.56-184.35-12.7-195.65,9.88-13.79,27.54,47.05,176.66,44.91,246.06Z"/>
          <path class="cls-25" d="m280.79,445.48h251.57c-9.98-76.6-34.42-150.28-61.11-216.69-5.76-14.34-13.11-31.42-39.72-39.26-66.4-19.56-184.35-12.7-195.65,9.88-13.79,27.54,47.05,176.66,44.91,246.06Z"/>
          <path class="cls-13" d="m251.88,473.05l267.62-3.58c-6.91-87.01-34.13-171.01-64.19-245.79-5.76-14.34-13.11-31.42-39.72-39.26-66.4-19.56-184.35-12.7-195.65,9.88-16.94,33.83,78.76,251.18,31.94,278.75Z"/>
          <g>
            <path class="cls-13" d="m630.06,454.29v31.97c0,2.92-.46,5.69-1.3,8.2H253.18c-.83-2.51-1.3-5.28-1.3-8.2v-31.97c0-11.32,6.94-20.49,15.49-20.49h259.46c79.05,0,103.23,9.17,103.23,20.49Z"/>
            <path class="cls-10" d="m630.06,454.29v5.15H251.88v-5.15c0-11.32,6.94-20.49,15.49-20.49h259.46c79.05,0,103.23,9.17,103.23,20.49Z"/>
          </g>
          <path class="cls-25" d="m304.51,454.29v31.97c0,2.92-.1,5.69-.28,8.2h-80.34c-.18-2.51-.28-5.28-.28-8.2v-31.97c0-1.94.04-3.81.12-5.58.17-3.76.52-7.08.97-9.62.59-3.28,1.36-5.29,2.22-5.29h55.5c16.92,0,22.09,9.17,22.09,20.49Z"/>
          <g>
            <g>
              <path class="cls-10" d="m321.23,391.52c0,7.8-5.73,14.14-12.8,14.14h-129.31c-7.07,0-12.8-6.34-12.8-14.14,0-.31,0-.62.03-.93.01-.18.03-.37.05-.55.07-.73.18-1.44.35-2.13.58-2.45,1.75-4.65,3.32-6.38,2.32-2.56,5.51-4.14,9.05-4.14h129.31c5.94,0,10.93,4.47,12.38,10.52.28,1.15.42,2.36.42,3.62Z"/>
              <path class="cls-25" d="m292.33,391.52c0,7.81-6.33,14.14-14.14,14.14h-97.73c-7.81,0-14.14-6.33-14.14-14.14,0-1.25.17-2.47.47-3.62.64-2.45,1.93-4.64,3.67-6.38,2.56-2.56,6.09-4.14,10-4.14h97.73c6.56,0,12.07,4.47,13.68,10.52.31,1.15.46,2.37.46,3.62Z"/>
            </g>
            <path class="cls-11" d="m320.81,387.9h-154.02c.64-2.45,1.93-4.65,3.67-6.38,2.56-2.56,6.09-4.14,10-4.14h127.97c5.94,0,10.93,4.47,12.38,10.52Z"/>
          </g>
        </g>
        <g>
          <g>
            <g>
              <path class="cls-18" d="m832.86,429.44v-156.99c0-16.09,13.1-29.18,29.18-29.18h58.8c16.09,0,29.18,13.09,29.18,29.18v156.99c0,16.09-13.09,29.18-29.18,29.18h-58.8c-16.09,0-29.18-13.09-29.18-29.18Zm29.18-179.69c-12.52,0-22.7,10.18-22.7,22.7v156.99c0,12.52,10.18,22.7,22.7,22.7h58.8c12.52,0,22.7-10.19,22.7-22.7v-156.99c0-12.52-10.18-22.7-22.7-22.7h-58.8Z"/>
              <path class="cls-15" d="m857.84,247.33c0,3.68,2.98,6.66,6.66,6.66h53.91c3.68,0,6.66-2.98,6.66-6.66h0c0-3.68-2.98-6.66-6.66-6.66h-53.91c-3.68,0-6.66,2.98-6.66,6.66h0Z"/>
            </g>
            <g>
              <g>
                <path class="cls-17" d="m828.54,665.06c0,4.72,3.83,8.55,8.55,8.55h99.36c4.72,0,8.55-3.83,8.55-8.55h0c0-4.72-3.83-8.55-8.55-8.55h-99.36c-4.72,0-8.55,3.83-8.55,8.55h0Z"/>
                <path class="cls-18" d="m845.47,665.06c0,4.72,3.83,8.55,8.55,8.55h99.36c4.72,0,8.54-3.83,8.54-8.55h0c0-4.72-3.83-8.55-8.54-8.55h-99.36c-4.72,0-8.55,3.83-8.55,8.55h0Z"/>
              </g>
              <g>
                <path class="cls-17" d="m928.02,678.99c0,5.49,4.45,9.93,9.93,9.93h0c5.48,0,9.93-4.44,9.93-9.93h0c0-5.48-4.45-9.93-9.93-9.93h0c-5.48,0-9.93,4.45-9.93,9.93h0Z"/>
                <path class="cls-18" d="m937.95,678.99c0,5.49,4.45,9.93,9.93,9.93h0c5.48,0,9.93-4.44,9.93-9.93h0c0-5.48-4.45-9.93-9.93-9.93h0c-5.48,0-9.93,4.45-9.93,9.93h0Z"/>
              </g>
              <g>
                <path class="cls-17" d="m836.28,678.99c0,5.49,4.45,9.93,9.93,9.93h0c5.48,0,9.93-4.44,9.93-9.93h0c0-5.48-4.45-9.93-9.93-9.93h0c-5.49,0-9.93,4.45-9.93,9.93h0Z"/>
                <path class="cls-18" d="m846.21,678.99c0,5.49,4.44,9.93,9.93,9.93h0c5.49,0,9.93-4.44,9.93-9.93h0c0-5.48-4.44-9.93-9.93-9.93h0c-5.48,0-9.93,4.45-9.93,9.93h0Z"/>
              </g>
            </g>
            <g>
              <g>
                <path class="cls-15" d="m810.6,418.17v217.95c0,16.8,13.61,30.4,30.4,30.4h114.75c16.8,0,30.4-13.61,30.4-30.4v-217.95c0-16.78-13.6-30.4-30.4-30.4h-114.75c-16.8,0-30.4,13.62-30.4,30.4Z"/>
                <path class="cls-14" d="m846.45,418.17v217.95c0,16.8,13.62,30.4,30.4,30.4h78.9c16.8,0,30.4-13.61,30.4-30.4v-217.95c0-16.78-13.6-30.4-30.4-30.4h-78.9c-16.78,0-30.4,13.62-30.4,30.4Z"/>
              </g>
              <path class="cls-27" d="m880.64,460.25c0,91.87,29.72,166.36,66.37,166.36,14.63,0,28.17-11.87,39.15-31.99v-176.45c0-16.78-13.6-30.4-30.4-30.4h-68.49c-4.25,21.91-6.63,46.5-6.63,72.48Z"/>
            </g>
          </g>
          <g>
            <path class="cls-2" d="m692.7,320.91s-13.23-47.75-15.14-73.11c-.9-11.88-10.69-43.94-21.27-44.24l3.23,23.69c5.33,11.7,1.58,35.94,2.13,49.78.68,17.23,3.82,35.02,8.91,51.66,3.61,11.8,14.63,41.87,26.66,45.07,7.35,1.96,26.09-4.79,31.89-8.64-16-19.36-36.41-44.2-36.41-44.2Z"/>
            <g>
              <g>
                <g>
                  <g>
                    <path class="cls-6" d="m707.27,366.55s-2.39,12.1-17.79,18.28c-8.5,3.41-18.85,6.04-29,8.06-1.36.27-2.72.53-4.07.78h-.02c-20.15,3.71-54.27,6.48-54.27,6.48,1.83-20.68,7.47-51.61,4.8-59.41-9.05-26.37-13.45-46.49-24.56-62.26l-8.62-10.74c-4.69-5.51-8.4-9.51-10.37-11.74-.97-1.1-2.56-3.89-4.53-7.78-1.25-2.47-2.66-5.39-4.16-8.6-.74-1.57-1.5-3.21-2.27-4.9-8.89-19.41-16.41-39.09-18.87-43.48-6-10.67,8.77-13.58,37.15-18.73.68-.12,1.36-.24,2.06-.36,10.62-1.86,21.94-3.31,32.95-4.13,1.31-.1,2.61-.18,3.91-.26,10.11-.62,19.84-.7,28.4-.03,4.34.34,42.58,53.99,42.87,55.57,1.74,9.5-6.11,28.52-5.46,44,1.98,47.03,15.6,75.55,31.87,99.24Z"/>
                    <g>
                      <path class="cls-12" d="m578.19,163.83l-3.85-38.83-2.24-22.6-.11-1.15,33.22-3.3,1.59,16.11,3.92,39.54.91,9.13.58,5.87-1.2.12c-1.49-2.69-2.79-4.41-3.63-4.94l-15.8-3.65c-.22-.02-.47,0-.74.02-3.54.37-8.54,4.11-10.31,6.96-.71,1.14-1.27,2.32-1.66,3.54l-.68-6.82Z"/>
                      <path class="cls-19" d="m627.77,110.43l.37-.16c-.13.07-.25.12-.37.16Z"/>
                      <path class="cls-19" d="m627.04,110.88l.43-.02c.04.13-.17.1-.43.02Z"/>
                      <path class="cls-3" d="m577,186.46c7.68,16.18,29.71,30.37,44.28,32.24l1.27.16.63-1.12c3.01-5.32,2.63-13.61,1.38-20.92-.83-4.89-2.05-9.32-2.91-12.12-.92-3.02-2.02-6.14-3.22-9.1h0c-.27-.69-.55-1.36-.83-2.02-.68-1.57-1.38-3.08-2.09-4.48-1.15-.14-2.31-.28-3.47-.41-.14-.01-.28-.03-.41-.04l-.39.03-.23.02c.78,1.39,1.61,3.05,2.47,4.94,1.52,3.37,3.09,7.48,4.53,12.18.59,1.94,1.11,3.83,1.56,5.66,2.49,10.12,2.81,18.45.85,23.22-13.34-2.39-33.16-15.51-39.98-29.89-2.45-5.15-2.98-9.92-1.58-14.18l-.39-3.92h0c-.7-.01-1.4-.02-2.09-.02-.28.55-.53,1.11-.75,1.68-2.14,5.46-1.69,11.64,1.37,18.08Z"/>
                      <path class="cls-12" d="m578.48,166.72c2.17-3.49,9.94-8,13.81-7.63l15.08,3.48c5.74,2.86,20.05,39.82,13.06,52.14-19.19-2.46-53.71-29.14-41.95-48Z"/>
                      <g>
                        <path class="cls-19" d="m575.44,136.57c7.61,18.78,28.59,28.19,36.38,28.6l-3.93-39.54-34.7-11.65,2.24,22.59Z"/>
                        <g>
                          <path class="cls-29" d="m646.14,121.85c5.79-.7,9.85-6.68,9.05-13.35-.8-6.67-6.17-11.53-11.96-10.83l.16,1.31c5.07-.61,9.78,3.73,10.49,9.68.71,5.95-2.83,11.28-7.9,11.89-5.07.61-9.77-3.73-10.49-9.68-.43-3.6,1.33-7.89,3.65-10.21l-1.27-.63c-2.6,2.6-4.17,7-3.69,11,.8,6.67,6.17,11.52,11.96,10.83Z"/>
                          <path class="cls-29" d="m641.52,98.52c.1.84.86,1.43,1.7,1.33.84-.1,1.43-.86,1.33-1.7-.1-.84-.86-1.43-1.7-1.33-.83.1-1.43.86-1.33,1.69Z"/>
                        </g>
                        <path class="cls-12" d="m563.3,45.81c5.7-7.75,41.07-19.77,56.21-4.55,12.91,12.98,14.89,32.61,21.57,49.66,11.29,28.84-12.85,62.61-21.58,62.69-15.21.13-36.15-10.96-43.79-21.68-5.69-7.99-4.66-17.67-8.54-26.84-7.9-18.69-16.47-42.15-3.86-59.28Z"/>
                        <path class="cls-19" d="m618.75,100.9c1.83,1,3.58,1.67,2.15,4.24-1.99,3.59-7.19,3.74-9.32,3.65,1.2-.47,6.51-2.84,7.87-4.51.94-1.15-6.76-6.67-.7-3.37Z"/>
                        <g>
                          <path class="cls-16" d="m629.21,116.27l.23-.03c-.08.3-7.61,10.22-9.55,14.73-1.38,3.19-3.66,7.08-7.74,7.13-10.29.12-13.89-17.64-16.71-21.37,2.91,3.86,28.31.73,33.77-.47Z"/>
                          <path class="cls-24" d="m608.4,129.93c.78-.52,2.47-.49,3.35-.36,1.73.26,3.58.84,5.04,1.83.57.38,2.03,1.84,2,2.62-.03.78-1.33,1.69-1.81,2.18-1.15,1.2-2.65,1.58-4.31,1.72-2.78.24-4.56-.73-6.36-2.8-1.05-1.22-1.9-2.6-3.06-3.68l-5.54-8.12c3.8-.44,10.28,2.47,10.68,6.61Z"/>
                          <path class="cls-3" d="m626.29,115.51c-.63,1.72-1.85,3.42-2.96,4.63-2.19,2.4-5.18,2.75-8.43,3.03-3.05.26-6.33-.01-9.12-.93-1.97-.65-2.49-2.26-3.17-3.89l23.68-2.85Z"/>
                          <path class="cls-4" d="m592.97,114.29s.44,1.87,1.33,4.58c1.91,5.75,5.9,15.31,12.26,18.83.9.5,1.84.87,2.83,1.1.88.21,1.81.3,2.77.25.26-.01.52-.01.77-.05,4.77-.57,7.08-5.9,7.83-7.65,1.44-3.34,10-16.21,10-16.21,0,0-1.02.18-2.57.43h0c-.61.11-1.3.22-2.04.34-2.55.42-5.75.92-8.4,1.25-.27.04-.54.07-.79.1-2.89.35-5.67.44-8.25.37-.47-.01-.95-.03-1.41-.06-1.09-.05-2.14-.14-3.14-.25-6.24-.69-10.59-2.26-11.17-3.02Zm4.39,3.98c1.11.27,3.02.68,5.62.98.87.1,1.8.19,2.82.24.54.04,1.1.06,1.68.08,2.65.08,5.71,0,9.14-.39.17-.01.35-.04.53-.05,2.83-.34,5.57-.74,7.84-1.12h0c.85-.14,1.63-.27,2.33-.41-2.32,3.24-6.83,9.56-8.31,12.99-.31.72-.63,1.39-.96,2.02,0,0,0,0,0,0-1.69,3.25-3.62,5.12-5.93,4.54-1.08-.27-2.08-.63-3.01-1.07-.45-.21-.88-.44-1.3-.69-1.18-.68-2.23-1.49-3.15-2.37,0,0-.02-.02-.02-.02-1.73-1.66-3.06-3.57-4.07-5.48,0,0,0,0,0-.01-.78-1.47-1.38-2.91-1.83-4.23h0c-.44-1.26-.74-2.38-.96-3.24-.23-.96-.35-1.6-.42-1.77Z"/>
                          <g>
                            <path class="cls-19" d="m629.05,115.54l.27-.11c-.08.05-.17.08-.27.11Z"/>
                            <path class="cls-4" d="m613.89,113.7c1.04.59,2.34,1.52,3.53,1.73,1.18.21,2.34-.67,3.3-1.32,1.69-1.13,1.7-1.31,3.44-.31,1.09.62,3.54,2.13,4.89,1.74l-4.61,1.9c-.18.4-2.86.34-3.61.43-1.61.19-3.22.39-4.83.58-1.86.22-3.69.28-5.55.43-1.34.11-14.28.25-17.49-4.59,3.21-.38,11.55,5.11,20.92-.59Z"/>
                          </g>
                        </g>
                        <path class="cls-26" d="m630.32,65.52l.54.6c-2.15-2.05-11.58-2-12.89.85-3.22-10.96,9.27-5.22,12.35-1.45Z"/>
                        <path class="cls-26" d="m570.5,73.08l-.23.86c1.12-3.18,11.47-9.87,14.62-8.51-3.08-11.12-13.29,2.41-14.38,7.65Z"/>
                        <g>
                          <path class="cls-20" d="m514.59,88.15c.27.92.83,2.06,1.54,3.29,2.15,3.71,5.8,8.24,8,9.86-5.36,6.54,8.38,13.87,13.83,20.11,16.14,18.46,33.52-6.32,32.44-9.55-2.44-7.42-4.84-15.28-7.16-22.94-4.14-13.62,2.45-33.44,19.95-37.57,8.17-1.93,7.21-1.66,15.46-3.09,7.83-1.35,15.54-3.74,22.52.42,1.23.74,3.05,1.6,3.47,2.22l8.71,16.61.61,1.15c.24-.7.5-1.43.77-2.16,2.48-6.63,6.19-14.29,7.75-21.44,1.36-6.2,1.09-12.03-3.04-16.45-4.5-4.84-13.12-3.81-14.64-6.83-1.8-3.57-3.17-14.16-6.01-16.87-3.48-3.33-9.05.99-13.56,5.22-1.82-12.99-14.87-12.66-27.43-3.61-3.05,2.2-8.28-3.62-10.78-1.36-7.23,6.51-14.51.89-17.68,1.75-4.49,1.22-5.81,2.62-9.22,5.46-2.69,2.25-11.86,4.81-14.92,6.66-5.55,3.35-12.69,13.82-8.18,20.35-7.54,2.55-8.8,13.14-1.35,16.43-2.57,1.64-3.77,10.67-3.36,13.6.53,3.91,6.15,3.58,7.46,6.68,1.41,3.33-6.39,8.13-5.19,12.07Z"/>
                          <path class="cls-26" d="m524.13,101.31c-5.36,6.54,8.38,13.87,13.83,20.11,16.14,18.46,33.52-6.32,32.44-9.55-2.44-7.42-4.84-15.28-7.16-22.94-4.14-13.62,2.45-33.44,19.95-37.57,8.17-1.93,7.21-1.66,15.46-3.09,7.83-1.35,15.54-3.74,22.52.42,1.23.74,3.05,1.6,3.47,2.22l8.71,16.61c-.08-.24.48-.55,1.39-1.01,2.48-6.63,6.19-14.29,7.75-21.44-1.29-2.43-3.14-5.12-5.64-8.11-1.98,3.61-6.79,9.95-11.93,8.06-4.61-1.69-2.04-10.9-4.15-14.76-1.26,1.49-4.37,12.33-7.88,9.23-1.85-1.63-.63-8.58-.87-10.86-.29-2.66-.1-7.16-1.78-9.31-3.26,5.44-2.25,15.77-8.42,19.09-11.56,6.2-10.17-16.65-12.85-21.26-3.09,4.44-.84,23.62-7.27,24.41-4.94.61-6.95-10.24-8.93-13.47-2-3.26-7.18-9.3-11.31-8.94-.32,3.94,5,7.23,6.28,11.13,1.06,3.21,3.66,10.41,2.07,13.8-1.45,3.08-5.77,4.22-8.74,3.28-4.91-1.56-7.1-7.53-9.92-11.31-1.47,5.39.51,10.84,3.58,15.32,2.1,3.06,6.88,7.67,2.94,10.76-4.5,3.52-12.24.83-16.54-1.84-3.51-2.18-7.31-4.84-9.59-8.41-1.74-2.73-2.11-5.9-4.77-7.94-1.25,5.68,5.97,14.68,9.9,17.96,4.6,3.82,9.57,7.93,15.37,9.5-2.92,7.94-14.85,14.78-23.27,10.16,1.82,1.53,5.24,3.17,7.6,3-.91,4.86-8.92,5.61-12.72,6.46-2.23.49-4.85.66-7.51.42,2.15,3.71,5.8,8.24,8,9.86Z"/>
                        </g>
                        <g>
                          <g>
                            <path class="cls-12" d="m554.01,102.14c3.09-2.09,7.99-.49,10.6,1.27,3.81,2.58,10.05,13.43,7.15,16.97-4.65,5.67-16.85-2.22-19.41-8.75-1.07-2.73-1.13-7.59,1.66-9.48Z"/>
                            <path class="cls-19" d="m553.3,108.58c-.43-8.28,11.53-6.71,13.16-.18-2.7-.87-3.77,3.01-2.6,4.85,1.31,2.04,4.52,1.78,5.29-.56.6,3.64-4.75,4-6.85,2.29-2.62-2.13-1.99-6.68,1.07-8.09-3.09-3.92-10.41-1.53-9.44,3.66l-.64-1.97Z"/>
                          </g>
                          <g>
                            <path class="cls-29" d="m569.27,142.26c5.79-.7,9.85-6.68,9.05-13.35-.8-6.66-6.16-11.52-11.96-10.83l.16,1.31c5.07-.61,9.77,3.73,10.49,9.68.71,5.94-2.83,11.28-7.9,11.88-5.07.61-9.78-3.73-10.49-9.68-.43-3.6,1.33-7.89,3.65-10.21l-1.26-.63c-2.61,2.6-4.17,7-3.69,11,.8,6.67,6.16,11.52,11.96,10.83Z"/>
                            <path class="cls-29" d="m564.65,118.93c.1.83.86,1.43,1.69,1.33.84-.1,1.43-.86,1.33-1.69-.1-.84-.86-1.43-1.7-1.33-.83.1-1.43.86-1.33,1.7Z"/>
                          </g>
                        </g>
                        <g>
                          <path class="cls-3" d="m576.37,98.85c.67-6.91,5.07-17.78,17.97-10,4.06,1.86,7.51,4.78,8.31,5.47.05.05.1.08.13.12.03.02.05.03.05.03-.21.12-.41.23-.62.34-.87.49-1.74.97-2.61,1.43-.65.34-1.3.68-1.95,1-.22.11-.44.22-.66.32-.22.11-.44.21-.66.32-.27.13-.54.25-.81.38l-.93.42c-.52.23-1.04.45-1.57.66-.1.05-.21.09-.32.13-.31.13-.63.25-.94.37-.03.02-.06.02-.09.03-.29.11-.58.22-.87.32-.18.07-.37.13-.56.2-.2.07-.41.14-.6.2-.25.08-.5.17-.75.24-.27.09-.55.18-.83.25-.04.01-.09.03-.14.04-.12.03-.23.07-.35.09-.23.07-.46.13-.69.19-.47.13-.93.24-1.4.34-.24.06-.47.11-.71.15-.23.04-.47.09-.71.14-.21.03-.41.07-.63.11-.05.01-.1.02-.15.02-.45.07-.91.14-1.37.2-1,.13-2,.21-3.02.25-.41,0-.82.02-1.23.02h-.02c-.41,0-.82,0-1.23-.02-.02-.11-.04-.23-.06-.34-.18-1.16-.19-2.31,0-3.46Z"/>
                          <g>
                            <g>
                              <path class="cls-5" d="m580.34,94.64c.46,4.41,3.23,7.74,6.19,7.43,2.96-.31,4.98-4.13,4.53-8.55-.46-4.41-3.23-7.73-6.19-7.43-2.96.31-4.98,4.13-4.52,8.54Z"/>
                              <path class="cls-28" d="m582.21,94.15c.32,3.07,2.12,5.4,4.03,5.2,1.91-.2,3.19-2.85,2.87-5.92-.32-3.07-2.12-5.4-4.03-5.2-1.91.2-3.19,2.85-2.87,5.92Z"/>
                              <path class="cls-3" d="m578.55,91.65l6.15.51s-4.15,3.14-5.5,2.46c-.68-.34-.65-2.97-.65-2.97Z"/>
                            </g>
                            <path class="cls-19" d="m576.43,102.65c-.17-.9-.21-2.25-.06-3.8.67-6.91,5.07-17.78,17.97-10,4.1,2.47,7.97,5.25,8.44,5.59.03.02.05.03.05.03,0,0-11.7-20.91-24.2-14.35-6.27,3.28-5.02,17.28-2.2,22.53Z"/>
                            <path class="cls-19" d="m577.68,102.67c11.63,2.86,20.84-3.8,24.53-7.85-.87.49-1.74.97-2.61,1.43-.65.34-1.3.68-1.95,1-.22.11-.44.22-.66.32-.22.11-.44.21-.66.32-.27.13-.54.25-.81.38l-.93.42c-.52.23-1.04.45-1.57.66-.1.05-.21.09-.32.13-.31.13-.63.25-.94.37-.03.02-.06.02-.09.03-.29.11-.58.22-.87.32-.18.07-.37.13-.56.2-.2.07-.41.14-.6.2-.25.08-.5.17-.75.24-.27.09-.55.18-.83.25-.04.01-.09.03-.14.04-.12.03-.23.07-.35.09-.23.07-.46.13-.69.19-.47.13-.93.24-1.4.34-.24.06-.47.11-.71.15-.23.04-.47.09-.71.14-.21.03-.41.07-.63.11-.05.01-.1.02-.15.02-.45.07-.91.14-1.37.2-1,.13-2,.21-3.02.25-.41,0-.82.02-1.23.02Z"/>
                          </g>
                        </g>
                        <g>
                          <path class="cls-3" d="m637.1,84.4c-3.36-4.72-10.9-10.8-16.28.04-1.94,2.99-3.02,6.49-3.27,7.32-.02.06-.03.1-.03.14-.01.03-.02.04-.02.04.19,0,.37,0,.56,0,.79,0,1.58,0,2.36-.02.58-.01,1.16-.03,1.73-.06.19,0,.39-.02.58-.03.19-.01.38-.02.57-.03.23-.02.47-.04.7-.06l.8-.07c.45-.04.89-.09,1.33-.15.09-.01.18-.02.27-.04.27-.03.53-.07.79-.11.03,0,.05,0,.07-.01.24-.03.48-.07.72-.12.15-.02.3-.05.46-.08.17-.03.33-.06.49-.1.2-.04.41-.08.61-.13.22-.05.44-.1.66-.15.03,0,.07-.02.11-.03.09-.03.18-.04.27-.07.18-.04.36-.09.54-.14.36-.1.73-.21,1.08-.32.18-.06.36-.12.54-.18.17-.06.35-.12.53-.19.15-.06.31-.11.47-.17.04-.01.08-.03.11-.05.33-.13.67-.27,1-.41.72-.31,1.43-.66,2.13-1.04.28-.16.56-.32.83-.49h.01c.28-.17.55-.34.82-.52-.04-.09-.07-.18-.1-.27-.36-.91-.85-1.75-1.46-2.5Z"/>
                          <g>
                            <path class="cls-5" d="m620.76,84.82c.46,4.41,3.23,7.74,6.19,7.43,2.96-.31,4.98-4.13,4.52-8.54-.46-4.41-3.23-7.74-6.19-7.43-2.96.31-4.98,4.13-4.52,8.54Z"/>
                            <path class="cls-28" d="m622.63,84.32c.32,3.07,2.12,5.4,4.03,5.2,1.91-.2,3.19-2.85,2.87-5.92-.32-3.07-2.12-5.4-4.03-5.2-1.91.2-3.19,2.85-2.87,5.92Z"/>
                            <path class="cls-3" d="m618.97,81.83l6.15.51s-4.15,3.14-5.49,2.46c-.68-.34-.65-2.97-.65-2.97Z"/>
                          </g>
                          <path class="cls-19" d="m638.66,87.17c-.26-.72-.81-1.71-1.56-2.77-3.36-4.72-10.9-10.8-16.28.04-1.71,3.44-3.13,7.02-3.3,7.46-.01.03-.02.04-.02.04,0,0-.98-19.85,10.18-20.16,5.6-.16,10.66,10.46,10.98,15.4Z"/>
                          <path class="cls-19" d="m637.83,87.68c-6.6,6.77-15.59,5.68-19.77,4.25.79,0,1.58,0,2.36-.02.58-.01,1.16-.03,1.73-.06.19,0,.39-.02.58-.03.19-.01.38-.02.57-.03.23-.02.47-.04.7-.06l.8-.07c.45-.04.89-.09,1.33-.15.09-.01.18-.02.27-.04.27-.03.53-.07.79-.11.03,0,.05,0,.07-.01.24-.03.48-.07.72-.12.15-.02.3-.05.46-.08.17-.03.33-.06.49-.1.2-.04.41-.08.61-.13.22-.05.44-.1.66-.15.03,0,.07-.02.11-.03.09-.03.18-.04.27-.07.18-.04.36-.09.54-.14.36-.1.73-.21,1.08-.32.18-.06.36-.12.54-.18.17-.06.35-.12.53-.19.15-.06.31-.11.47-.17.04-.01.08-.03.11-.05.33-.13.67-.27,1-.41.72-.31,1.43-.66,2.13-1.04.28-.16.56-.32.83-.49Z"/>
                        </g>
                      </g>
                    </g>
                  </g>
                  <path class="cls-1" d="m656.41,393.67c11.42-2.09,23.43-4.97,33.08-8.83,15.39-6.18,17.79-18.28,17.79-18.28-16.26-23.69-29.89-52.21-31.86-99.24-.65-15.49,7.19-34.51,5.46-44-.36,4.29-1.77,9.32-2.82,13.27-2.36,8.89-5.61,17.8-13.36,23.41,5.43,10.51,4.81,23.95,6.41,35.58,1.81,13.2,4.07,26.86,10.19,38.9,4.18,8.21,11.34,26.56,9.41,35.14-2.87,12.81-12.95,15.91-23.64,20.06-3.39,1.32-6.98,2.71-10.64,4Z"/>
                </g>
                <path class="cls-1" d="m674.69,380.59c-4.13,4.56-8.97,8.59-14.2,12.29-1.36.27-2.72.53-4.07.78h-.02c-20.15,3.71-54.27,6.48-54.27,6.48,1.83-20.68,7.47-51.61,4.8-59.41-9.05-26.37-13.45-46.49-24.56-62.26l-8.62-10.74c-4.69-5.51-8.4-9.51-10.37-11.74-.97-1.1-2.56-3.89-4.53-7.78,1.11-5.82,2.25-11.53,6.04-16.81-1.16,7.42-.77,15.86.31,23.4,1.26-1.92,3.14-4.68,4.72-6.91,2.1,18.78,27.94,27.58,43.33,23.08-5.66,4.28-12.39,7.47-18.65,10.57-1.1,8.78,5.02,20.15,7.04,28.58,2.48,10.39,5.21,21.07,6.59,31.51,4.92-1.85,10.65-3.1,16.18-2.78-5.07,1.1-11.44,4.29-15.36,7.95,5.35-.28,12.34.24,16.23,3.39-12.19.11-16.81,17.73-8.4,24.75,13.24,11.05,42.52,7.71,57.83,5.64Z"/>
                <g>
                  <path class="cls-14" d="m764.25,372.6c-13.68-18.19-26.78-16.77-57.52-18.67-41.34-2.55-67.47,6.67-100.28,29.42-.34.23-1.9,1.96-4.1,4.45v51.46l.1.11c9.33-6.43,10.27-11.06,23.5-11.87,9.2-.57,18.36.02,27.11,2.18,16.45,4.07,31.27,7.19,48.22,4.07,27.78-5.11,54.06-.32,81.92,3.3.75-20.51-6.86-48.38-18.95-64.47Z"/>
                  <g>
                    <g>
                      <path class="cls-12" d="m731.8,609.11c-1.71,13.06-2.07,26.42,1.59,41.43.92,3.76,5.39,13.72,6.43,17.63,1.74,6.53-6.9,6.41-14.83.17-19.21-15.11-14.16-40.87-6.66-59.51l13.47.27Z"/>
                      <path class="cls-21" d="m749.04,679.26s.8-6.31-5.73-10.19c-3.78-2.24-7.83-12.53-7.83-12.53.61,3.12,4.35,11.64,4.35,11.64-2.26,1.21-12.21,3.97-20.54-11.65-8.33-15.62-6.64-28.45-6.64-28.45-6.24,1.89-10.77,10.01-10.05,13.7.06.32.15.63.24.92-.05.09-.07.15-.07.15.37,9.94-3.41,34.55-3.41,34.55,1.21,1.06,2.27.49,2.27.49,1.46-10.16,5.06-23.59,7.21-25.11,1.48-1.05,3.17.22,4.07,1.1,2.05,3.58,1.37,7.95,1.24,13.33-.25,4.57.09,13.77,7.75,16.8,10.13,4.01,20.66,3.72,23.95,2.65,3.29-1.07,3.2-7.38,3.2-7.38Z"/>
                    </g>
                    <path class="cls-22" d="m787.92,411.1c5.24-13.04,9.64-18.69.88-36.83-6.84-6.64-112.49-14.7-132.8,21.53-2.27,39.69,63.92,32.86,86.52,33.42,7.21.18-46.26.06-31.01,106.85,4.51,31.56,2.48,81.85,2.3,86.34-.01.21-.01.32-.01.32l16.78,5.34c.46-6.83,51.24-201.75,57.35-216.96Z"/>
                  </g>
                  <g>
                    <path class="cls-12" d="m851.28,612.35c-17.5-3.82-26.38-17.74-30.71-33.02-.01-.01,0-.02-.01-.03h0c-.18-.61-.34-1.22-.49-1.82-1.69-6.5-2.59-13.18-3.02-19.38l12.88-5.93.24-.11c4.46,13.39,10.35,26.44,20.9,39.19.96,1.17,2.77,2.9,4.81,4.8,0,0,0,0,0,0h0s.2.18.45.41c.05.04.1.09.16.14,3.41,3.17,7.32,6.66,9.02,8.63,4.73,5.49-3.66,9.4-14.22,7.1Z"/>
                    <path class="cls-12" d="m837.49,574.96l-17.43,2.52s-26.32-59.61-45.41-87.92c-43.22-64.07-33.15-91.42-24.55-104.28.52-.79,1.04-1.51,1.54-2.19,1.33-1.81-35.77-11.67-33.74-12.55,5.79-2.48,66.67-14.48,79.8-.34,5.4,5.81,10.56,102.28,30.23,174.87.65,2.39,1.31,4.76,2,7.1,2.32,8,4.84,15.65,7.57,22.79Z"/>
                    <path class="cls-21" d="m879.56,611.63s-2.17-6.46-10.29-7.15c-.25-.02-.51-.06-.77-.13-3.99-.9-10.08-6.04-12.02-7.74-.06-.05-.11-.1-.16-.14-.25-.22-.4-.36-.45-.4,2.06,2.72,9.63,9.18,9.63,9.18-1.61,2.21-9.91,9.53-25.24-1.63-14.85-10.82-19.42-23.51-19.69-24.29-.01-.01,0-.02-.01-.03h0c-2.72,2.5-4.16,6.49-4.54,10.15-.35,3.24.13,6.24,1.27,7.75.21.28.43.53.66.77,0,.11,0,.18,0,.18,5,9.41,12.86,34.9,12.86,34.9,1.66.45,2.42-.59,2.42-.59-3.34-10.47-6.15-25.11-4.8-27.58.46-.83,1.22-1.15,2.04-1.22.85-.06,1.75.16,2.4.38,3.65,2.5,5.04,7.03,7.43,12.27.52,1.23,1.23,2.78,2.18,4.35,2.54,4.21,6.73,8.69,13.13,8.22,11.64-.87,21.65-6.07,24.33-8.65,2.66-2.57-.37-8.61-.37-8.61Z"/>
                  </g>
                  <path class="cls-14" d="m693.35,433.97c1.52-5.46,27.76-61.84,62.85-69.92-18.98-2.47-72.78-7.79-102.06,8.57-14.05,7.85-65.2,30.03-47.84,48.45,12.26,13,61.77,13.08,78.02,12.93,3.39-.03,6.38.09,9.03-.03Z"/>
                </g>
              </g>
              <g>
                <path class="cls-12" d="m664.45,436.79c-.26-6.89.51-17.46-5.38-21.73-3.38-2.45-6.58-4.92-9.77-7.72-2.36-2.06-12.66-8.94-12.49-11.41l-5.74,9.33c1.17,6.25,3.67,14.86,7.08,20.48,3.41,5.61,8.96,10.66,11.85,16.51,1.49,3.01-.51,18.31,5.39,12.19,2.39-2.48,3.38-6.51,5.4-9.34,2.16-3.03,3.81-4.37,3.66-8.32Z"/>
                <path class="cls-6" d="m643.26,399.76c-3.62,5.04-6.91,10.55-9.15,16.3-28.86-13.84-73.03-41.17-88.99-50.28-11.29-6.44-47.95-177.33-6.12-185.74,2.33,6.07,5.18,11.98,7.52,17.76,2.97,7.33,4.89,15.23,7.08,22.82.05.19.14.49.24.88.3,1.06.75,2.64,1,3.53.45,1.64.88,3.29,1.31,4.94,1.11,4.29,2.14,8.61,3.09,12.95.34,1.56.83,3.06,1.44,4.49,2.97,30.68,8.15,95.41,8.15,95.41,0,0,13.22-.39,53.5,40.18,5.15,5.18,10.42,9.51,15.57,13.17,1.81,1.29,3.6,2.48,5.36,3.6Z"/>
                <g>
                  <path class="cls-1" d="m550.66,214.51v-1.29c-.08.38-.07.82,0,1.29Z"/>
                  <path class="cls-1" d="m637.9,396.16c-3.16-1.19-6.31-2.67-9.52-5.07-7.34-5.48-13.8-12.42-21-18.45-6.92-5.79-36.7-33.44-42.93-17.48.05-1.57-.78-2.96-.81-4.56-2.2,1.43-4.43,3.33-6.44,4.68,1.24-3.08,1.84-6.79,3.58-9.67-4.72,1.77-9.88,2.71-14.33,5.36,1.68-5.41,8.56-6.92,10.91-11.2,1.6-2.91.49-8.98.49-12.4.01-11.09-.88-22.04-1.4-33.17-.52-11.31-5.78-79.69-5.78-79.69.29,1.93,1.7,4.53,3.19,6.99.3,1.06.75,2.64,1,3.53.45,1.64.88,3.29,1.31,4.94,1.11,4.29,2.14,8.61,3.09,12.95.34,1.56.83,3.06,1.44,4.49,2.97,30.68,8.15,95.41,8.15,95.41,0,0,13.22-.39,53.5,40.18,5.15,5.18,10.42,9.51,15.57,13.17Z"/>
                </g>
              </g>
            </g>
          </g>
        </g>
        <path class="cls-23" d="m1055.92,687.24c0,4.4-92.86,7.97-207.41,7.97s-207.41-3.57-207.41-7.97,92.86-7.97,207.41-7.97,207.41,3.57,207.41,7.97Z"/>
      </g>
    </g>
  </g>
</svg>